<svg id="Layer_1" data-name="Layer 1" xmlns="http://www.w3.org/2000/svg" viewBox="0 0 49 49"><defs><style>.cls-1{fill:silver;}</style></defs><title>replay</title><g id="g3039"><path id="path3041" class="cls-1" d="M40,12v8.89a1.23,1.23,0,0,1-.38.9,1.22,1.22,0,0,1-.89.37h-8.9a1.19,1.19,0,0,1-1.17-.79A1.14,1.14,0,0,1,28.94,20l2.74-2.74a9.88,9.88,0,0,0-6.93-2.72,10,10,0,0,0-3.94.8,10.31,10.31,0,0,0-3.25,2.18,10.13,10.13,0,0,0-2.17,3.24,10,10,0,0,0,0,7.89,10.13,10.13,0,0,0,2.17,3.24A10.31,10.31,0,0,0,20.81,34a10.12,10.12,0,0,0,13.65-6.37.57.57,0,0,1,.6-.45H39a.58.58,0,0,1,.49.24.6.6,0,0,1,.14.53,15.06,15.06,0,0,1-2.93,6.2,14.91,14.91,0,0,1-5.28,4.23,15.24,15.24,0,0,1-6.68,1.51,14.8,14.8,0,0,1-5.92-1.22A15.24,15.24,0,0,1,14,35.44a15.42,15.42,0,0,1-3.26-4.87,15.06,15.06,0,0,1,0-11.83A15.42,15.42,0,0,1,14,13.87a15.24,15.24,0,0,1,4.86-3.25,15.07,15.07,0,0,1,11.57-.11,15.2,15.2,0,0,1,4.85,3.11l2.59-2.57a1.14,1.14,0,0,1,1.39-.27A1.18,1.18,0,0,1,40,12Z"/></g></svg>